<svg xmlns="http://www.w3.org/2000/svg" width="64" height="64" viewBox="0 0 64 64" role="img" aria-label="OCPMS logo">
	<defs>
		<linearGradient id="ocpms-gradient" x1="0" y1="0" x2="1" y2="1">
			<stop offset="0%" stop-color="#f2c94c" />
			<stop offset="45%" stop-color="#f2994a" />
			<stop offset="100%" stop-color="#22c55e" />
		</linearGradient>
	</defs>
	<rect width="64" height="64" rx="18" fill="url(#ocpms-gradient)" />
	<rect x="4" y="4" width="56" height="56" rx="16" fill="none" stroke="rgba(15, 23, 42, 0.35)" stroke-width="2" />
	<path d="M18 34c0-7.7 6.3-14 14-14s14 6.3 14 14-6.3 14-14 14S18 41.7 18 34zm7.2 0c0 3.8 3.1 6.8 6.8 6.8s6.8-3.1 6.8-6.8-3.1-6.8-6.8-6.8-6.8 3.1-6.8 6.8z" fill="#0b0f19" />
	<path d="M40.5 18.5h8.5v8.5h-4v-4.5h-4.5z" fill="#0b0f19" />
</svg>